solid Right Gripper. STL generated by ONSHAPE BY PTC INC, 1.213. Units = meters
   facet normal 1 0 0
      outer loop
         vertex -0.16608 -0.025 -0.743195
         vertex -0.16608 0.025 -0.743195
         vertex -0.16608 0.025 -0.713195
      endloop
   endfacet
   facet normal 1 0 0
      outer loop
         vertex -0.16608 0.025 -0.713195
         vertex -0.16608 -0.025 -0.713195
         vertex -0.16608 -0.025 -0.743195
      endloop
   endfacet
   facet normal 0.787228 0 -0.616662
      outer loop
         vertex -0.18958 -0.025 -0.773195
         vertex -0.18958 0.025 -0.773195
         vertex -0.16608 0.025 -0.743195
      endloop
   endfacet
   facet normal 0.787228 0 -0.616662
      outer loop
         vertex -0.16608 0.025 -0.743195
         vertex -0.16608 -0.025 -0.743195
         vertex -0.18958 -0.025 -0.773195
      endloop
   endfacet
   facet normal 0 0 -1
      outer loop
         vertex -0.20958 -0.025 -0.773195
         vertex -0.20958 0.025 -0.773195
         vertex -0.18958 0.025 -0.773195
      endloop
   endfacet
   facet normal 0 0 -1
      outer loop
         vertex -0.18958 0.025 -0.773195
         vertex -0.18958 -0.025 -0.773195
         vertex -0.20958 -0.025 -0.773195
      endloop
   endfacet
   facet normal 0 -1 0
      outer loop
         vertex -0.16608 -0.025 -0.743195
         vertex -0.23308 -0.025 -0.743195
         vertex -0.20958 -0.025 -0.773195
      endloop
   endfacet
   facet normal 0 -1 0
      outer loop
         vertex -0.16608 -0.025 -0.743195
         vertex -0.23308 -0.025 -0.713195
         vertex -0.23308 -0.025 -0.743195
      endloop
   endfacet
   facet normal 0 -1 0
      outer loop
         vertex -0.20958 -0.025 -0.773195
         vertex -0.18958 -0.025 -0.773195
         vertex -0.16608 -0.025 -0.743195
      endloop
   endfacet
   facet normal 0 -1 0
      outer loop
         vertex -0.16608 -0.025 -0.743195
         vertex -0.16608 -0.025 -0.713195
         vertex -0.23308 -0.025 -0.713195
      endloop
   endfacet
   facet normal 0 1 0
      outer loop
         vertex -0.16608 0.025 -0.743195
         vertex -0.18958 0.025 -0.773195
         vertex -0.20958 0.025 -0.773195
      endloop
   endfacet
   facet normal 0 1 0
      outer loop
         vertex -0.20958 0.025 -0.773195
         vertex -0.23308 0.025 -0.743195
         vertex -0.16608 0.025 -0.743195
      endloop
   endfacet
   facet normal 0 1 0
      outer loop
         vertex -0.23308 0.025 -0.713195
         vertex -0.16608 0.025 -0.713195
         vertex -0.16608 0.025 -0.743195
      endloop
   endfacet
   facet normal 0 1 0
      outer loop
         vertex -0.23308 0.025 -0.743195
         vertex -0.23308 0.025 -0.713195
         vertex -0.16608 0.025 -0.743195
      endloop
   endfacet
   facet normal -0.787228 0 -0.616662
      outer loop
         vertex -0.23308 -0.025 -0.743195
         vertex -0.23308 0.025 -0.743195
         vertex -0.20958 0.025 -0.773195
      endloop
   endfacet
   facet normal -0.787228 0 -0.616662
      outer loop
         vertex -0.20958 0.025 -0.773195
         vertex -0.20958 -0.025 -0.773195
         vertex -0.23308 -0.025 -0.743195
      endloop
   endfacet
   facet normal -1 0 0
      outer loop
         vertex -0.23308 -0.025 -0.713195
         vertex -0.23308 0.025 -0.713195
         vertex -0.23308 0.025 -0.743195
      endloop
   endfacet
   facet normal -1 0 0
      outer loop
         vertex -0.23308 0.025 -0.743195
         vertex -0.23308 -0.025 -0.743195
         vertex -0.23308 -0.025 -0.713195
      endloop
   endfacet
   facet normal 0 0 1
      outer loop
         vertex -0.16608 -0.025 -0.713195
         vertex -0.16608 0.025 -0.713195
         vertex -0.23308 0.025 -0.713195
      endloop
   endfacet
   facet normal 0 0 1
      outer loop
         vertex -0.23308 0.025 -0.713195
         vertex -0.23308 -0.025 -0.713195
         vertex -0.16608 -0.025 -0.713195
      endloop
   endfacet
endsolid Right Gripper. Units = meters