solid S1. STL generated by ONSHAPE BY PTC INC, 1.213. Units = meters
   facet normal 1 0 1.02798e-15
      outer loop
         vertex 0.13 -0.06 -0.06
         vertex 0.13 0.06 -0.06
         vertex 0.13 0.06 0.06
      endloop
   endfacet
   facet normal 1 0 1.02798e-15
      outer loop
         vertex 0.13 0.06 0.06
         vertex 0.13 -0.06 0.06
         vertex 0.13 -0.06 -0.06
      endloop
   endfacet
   facet normal -1.06752e-16 0 1
      outer loop
         vertex 0.13 -0.06 0.06
         vertex 0.13 0.06 0.06
         vertex -0.13 0.06 0.06
      endloop
   endfacet
   facet normal -1.06752e-16 0 1
      outer loop
         vertex -0.13 0.06 0.06
         vertex -0.13 -0.06 0.06
         vertex 0.13 -0.06 0.06
      endloop
   endfacet
   facet normal -1 0 -2.31296e-16
      outer loop
         vertex -0.13 -0.06 0.06
         vertex -0.13 0.06 0.06
         vertex -0.13 0.06 -0.06
      endloop
   endfacet
   facet normal -1 0 -2.31296e-16
      outer loop
         vertex -0.13 0.06 -0.06
         vertex -0.13 -0.06 -0.06
         vertex -0.13 -0.06 0.06
      endloop
   endfacet
   facet normal -1.06752e-16 0 -1
      outer loop
         vertex -0.13 -0.06 -0.06
         vertex -0.13 0.06 -0.06
         vertex 0.13 0.06 -0.06
      endloop
   endfacet
   facet normal -1.06752e-16 0 -1
      outer loop
         vertex 0.13 0.06 -0.06
         vertex 0.13 -0.06 -0.06
         vertex -0.13 -0.06 -0.06
      endloop
   endfacet
   facet normal 0 -1 0
      outer loop
         vertex -0.13 -0.06 -0.06
         vertex 0.13 -0.06 -0.06
         vertex 0.13 -0.06 0.06
      endloop
   endfacet
   facet normal 0 -1 0
      outer loop
         vertex 0.13 -0.06 0.06
         vertex -0.13 -0.06 0.06
         vertex -0.13 -0.06 -0.06
      endloop
   endfacet
   facet normal 0 1 0
      outer loop
         vertex -0.13 0.06 0.06
         vertex 0.13 0.06 0.06
         vertex 0.13 0.06 -0.06
      endloop
   endfacet
   facet normal 0 1 0
      outer loop
         vertex 0.13 0.06 -0.06
         vertex -0.13 0.06 -0.06
         vertex -0.13 0.06 0.06
      endloop
   endfacet
endsolid S1. Units = meters